<svg width="50" height="50" viewBox="0 0 50 50" fill="none" xmlns="http://www.w3.org/2000/svg">
<g clip-path="url(#clip0_74_88)">
<path d="M25 50C38.8071 50 50 38.8071 50 25C50 11.1929 38.8071 0 25 0C11.1929 0 0 11.1929 0 25C0 38.8071 11.1929 50 25 50Z" fill="#DD2E44"/>
<path d="M25 43.75C35.3553 43.75 43.75 35.3553 43.75 25C43.75 14.6447 35.3553 6.25 25 6.25C14.6447 6.25 6.25 14.6447 6.25 25C6.25 35.3553 14.6447 43.75 25 43.75Z" fill="white"/>
<path d="M25 38.8889C32.6706 38.8889 38.8889 32.6706 38.8889 25C38.8889 17.3294 32.6706 11.1111 25 11.1111C17.3294 11.1111 11.1111 17.3294 11.1111 25C11.1111 32.6706 17.3294 38.8889 25 38.8889Z" fill="#DD2E44"/>
<path d="M25.0001 33.3333C29.6025 33.3333 33.3334 29.6024 33.3334 25C33.3334 20.3976 29.6025 16.6667 25.0001 16.6667C20.3977 16.6667 16.6667 20.3976 16.6667 25C16.6667 29.6024 20.3977 33.3333 25.0001 33.3333Z" fill="white"/>
<path d="M24.9999 29.1667C27.3011 29.1667 29.1666 27.3012 29.1666 25C29.1666 22.6988 27.3011 20.8333 24.9999 20.8333C22.6987 20.8333 20.8333 22.6988 20.8333 25C20.8333 27.3012 22.6987 29.1667 24.9999 29.1667Z" fill="#DD2E44"/>
<path opacity="0.2" d="M25.3333 25.3917L43.5889 41.7167C43.5889 41.7167 39.9125 46.4056 32.6306 48.8125L24.4153 25.5833L25.3333 25.3917Z" fill="black"/>
<path d="M25.4083 26.3889C25.1345 26.3898 24.8666 26.3093 24.6387 26.1575C24.4108 26.0058 24.2332 25.7898 24.1283 25.5368C24.0235 25.2839 23.9963 25.0055 24.0501 24.737C24.1039 24.4686 24.2363 24.2222 24.4305 24.0292L25.2125 23.2472C25.4716 22.9879 25.8232 22.8421 26.1898 22.842C26.5564 22.8419 26.908 22.9874 27.1673 23.2465C27.4267 23.5057 27.5724 23.8572 27.5725 24.2238C27.5727 24.5904 27.4272 24.9421 27.168 25.2014L26.3847 25.9833C26.2569 26.1122 26.1048 26.2144 25.9372 26.284C25.7696 26.3536 25.5898 26.3893 25.4083 26.3889Z" fill="#FFAC33"/>
<path d="M33.3555 9.69582C32.7957 12.5833 33.3555 16.2111 33.3555 16.2111L43.1527 5.94999C43.5568 3.93054 42.4193 0.488875 40.7666 0.0638753C39.1138 -0.361125 35.1013 1.17915 33.3555 9.69582ZM40.3041 16.6444C37.4166 17.2042 33.7888 16.6444 33.7888 16.6444L44.0499 6.84721C46.0693 6.44304 49.511 7.58054 49.936 9.23332C50.361 10.8861 48.8207 14.8986 40.3041 16.6444Z" fill="#55ACEE"/>
<path d="M45.5528 6.22916L29.4111 24.4264C28.9083 24.9292 27.0875 25.6514 25.925 24.4903C24.7639 23.3292 25.343 21.6014 25.8458 21.0972L44.1875 4.86249C44.1875 4.86249 45.1264 3.98055 45.7972 4.65138C46.468 5.32222 45.5528 6.22916 45.5528 6.22916Z" fill="#3A87C2"/>
</g>
<defs>
<clipPath id="clip0_74_88">
<rect width="50" height="50" fill="white"/>
</clipPath>
</defs>
</svg>
