<svg width="51" height="50" viewBox="0 0 51 50" fill="none" xmlns="http://www.w3.org/2000/svg">
<path d="M25.4999 27.0833C31.2529 27.0833 35.9166 22.4196 35.9166 16.6667C35.9166 10.9137 31.2529 6.25 25.4999 6.25C19.747 6.25 15.0833 10.9137 15.0833 16.6667C15.0833 22.4196 19.747 27.0833 25.4999 27.0833Z" fill="#FFB74D" stroke="#FFB74D" stroke-width="2" stroke-linecap="round" stroke-linejoin="round"/>
<path d="M42.1666 43.75C42.1666 39.3297 40.4106 35.0905 37.285 31.9649C34.1594 28.8393 29.9202 27.0833 25.4999 27.0833C21.0796 27.0833 16.8404 28.8393 13.7148 31.9649C10.5892 35.0905 8.83325 39.3297 8.83325 43.75" stroke="#FFB74D" stroke-width="2" stroke-linecap="round" stroke-linejoin="round"/>
<path d="M25.4999 27.0833C21.0796 27.0833 16.8404 28.8393 13.7148 31.9649C10.5892 35.0905 8.83325 39.3297 8.83325 43.75H42.1666C42.1666 39.3297 40.4106 35.0905 37.285 31.9649C34.1594 28.8393 29.9202 27.0833 25.4999 27.0833Z" fill="#FFB74D" stroke="#FFB74D" stroke-width="2" stroke-linecap="round" stroke-linejoin="round"/>
</svg>
