<svg width="100" height="78" viewBox="0 0 100 78" fill="none" xmlns="http://www.w3.org/2000/svg">
<path fill-rule="evenodd" clip-rule="evenodd" d="M36.0645 1.55317C26.3983 3.73779 17.8048 8.13673 11.4066 14.1754C5.00835 20.214 1.10283 27.6116 0.200195 35.4018H23.0573C24.3824 23.5476 28.8059 12.028 36.0573 1.54762L36.0645 1.55317ZM23.0573 42.3392H0.200195C1.10094 50.1297 5.00479 57.528 11.4018 63.5677C17.7988 69.6073 26.3914 74.0075 36.0573 76.1934C28.8059 65.713 24.3824 54.1934 23.0573 42.3392ZM47.5145 77.6752C38.8487 67.0055 33.5388 54.9001 32.0145 42.3392H67.9788C66.4545 54.9001 61.1445 67.0055 52.4788 77.6752C50.825 77.7376 49.1683 77.7376 47.5145 77.6752ZM63.9431 76.1879C73.6079 74.0023 82.1998 69.603 88.5967 63.5644C94.9936 57.5258 98.8981 50.1287 99.8002 42.3392H76.9431C75.618 54.1934 71.1945 65.713 63.9431 76.1934V76.1879ZM76.9431 35.4018H99.8002C98.8995 27.6113 94.9956 20.213 88.5986 14.1734C82.2016 8.13372 73.6089 3.73353 63.9431 1.54762C71.1946 12.028 75.6182 23.5476 76.9431 35.4018ZM47.5145 0.0658084C49.1706 0.00280347 50.8298 0.00280347 52.4859 0.0658084C61.1491 10.736 66.4567 22.8414 67.9788 35.4018H32.0216C33.5716 22.7648 38.8931 10.6494 47.5145 0.0658084Z" fill="#3AA2CF"/>
</svg>
