<svg width="100" height="101" viewBox="0 0 100 101" fill="none" xmlns="http://www.w3.org/2000/svg">
<g clip-path="url(#clip0_98_155)">
<path fill-rule="evenodd" clip-rule="evenodd" d="M50 0.870361C36.8933 0.870361 24.9067 2.38369 16.0867 4.90369C11.7 6.15703 7.90667 7.70369 5.13333 9.57703C2.48 11.377 0 14.0037 0 17.537V84.157C0 87.6904 2.48 90.317 5.13333 92.1037C7.90667 93.977 11.7 95.5304 16.0867 96.7837C24.9067 99.3037 36.8933 100.817 50 100.817C63.1067 100.817 75.0933 99.3037 83.9133 96.7837C88.3 95.5304 92.0933 93.977 94.8667 92.1037C97.52 90.317 100 87.6904 100 84.157V17.537C100 14.0037 97.52 11.377 94.8667 9.58369C92.0933 7.71703 88.3 6.16369 83.9133 4.91036C75.0933 2.38369 63.1067 0.870361 50 0.870361ZM8.41333 19.9637L11.4267 21.3904C18.94 24.9504 33.2267 27.5237 50 27.5237C66.78 27.5237 81.06 24.9504 88.5733 21.3904L91.5867 19.9637L94.44 25.9904L91.4267 27.417C82.6067 31.597 67.1733 34.197 50 34.197C32.8267 34.197 17.3933 31.597 8.57333 27.417L5.56 25.9837L8.41333 19.9637ZM11.4267 54.5237L8.41333 53.097L5.56 59.1237L8.57333 60.5504C17.3933 64.7304 32.8267 67.3304 50 67.3304C67.1733 67.3304 82.6067 64.7304 91.4267 60.5504L94.44 59.1237L91.5867 53.097L88.5733 54.5237C81.06 58.0837 66.7733 60.657 50 60.657C33.22 60.657 18.94 58.0837 11.4267 54.5237Z" fill="black"/>
</g>
<defs>
<clipPath id="clip0_98_155">
<rect width="100" height="100" fill="white" transform="translate(0 0.870361)"/>
</clipPath>
</defs>
</svg>
