<svg width="101" height="101" viewBox="0 0 101 101" fill="none" xmlns="http://www.w3.org/2000/svg">
<g clip-path="url(#clip0_98_150)">
<path d="M50.0766 0.398682C24.7516 0.398682 26.3328 11.4242 26.3328 11.4242L26.3609 22.8469H50.5281V26.2763H16.7621C16.7621 26.2763 0.556641 24.4312 0.556641 50.0842C0.556641 75.7379 14.7012 74.8281 14.7012 74.8281H23.1426V62.9238C23.1426 62.9238 22.6875 48.7238 37.0613 48.7238H61.0309C61.0309 48.7238 74.4977 48.9422 74.4977 35.6575V13.692C74.4977 13.692 76.543 0.398682 50.0766 0.398682ZM36.7508 8.08025C37.3219 8.07973 37.8875 8.19228 38.4152 8.41144C38.9429 8.63061 39.4224 8.95209 39.8262 9.35749C40.23 9.7629 40.5502 10.2443 40.7685 10.774C40.9869 11.3038 41.099 11.8716 41.0984 12.445C41.099 13.0183 40.9869 13.5861 40.7685 14.1159C40.5502 14.6457 40.23 15.127 39.8262 15.5324C39.4224 15.9378 38.9429 16.2593 38.4152 16.4785C37.8875 16.6976 37.3219 16.8102 36.7508 16.8097C36.1797 16.8102 35.6141 16.6976 35.0864 16.4785C34.5587 16.2593 34.0792 15.9378 33.6754 15.5324C33.2716 15.127 32.9513 14.6457 32.733 14.1159C32.5147 13.5861 32.4026 13.0183 32.4031 12.445C32.4026 11.8716 32.5147 11.3038 32.733 10.774C32.9513 10.2443 33.2716 9.7629 33.6754 9.35749C34.0792 8.95209 34.5587 8.63061 35.0864 8.41144C35.6141 8.19228 36.1797 8.07973 36.7508 8.08025Z" fill="url(#paint0_linear_98_150)"/>
<path d="M50.7955 100.028C76.1205 100.028 74.5393 89.0021 74.5393 89.0021L74.5111 77.5798H50.3436V74.1504H84.1096C84.1096 74.1504 100.315 75.9955 100.315 50.3418C100.315 24.6884 86.1705 25.5982 86.1705 25.5982H77.7291V37.5021C77.7291 37.5021 78.1842 51.7022 63.8104 51.7022H39.8408C39.8408 51.7022 26.374 51.4837 26.374 64.7688V86.7347C26.374 86.7347 24.3291 100.028 50.7951 100.028M64.1209 92.3469C63.5498 92.3474 62.9842 92.2348 62.4565 92.0157C61.9288 91.7965 61.4493 91.475 61.0455 91.0696C60.6417 90.6642 60.3215 90.1828 60.1032 89.6531C59.8848 89.1233 59.7727 88.5555 59.7733 87.9822C59.7727 87.4088 59.8848 86.8409 60.103 86.3111C60.3213 85.7813 60.6415 85.2999 61.0454 84.8944C61.4492 84.489 61.9287 84.1675 62.4564 83.9483C62.9842 83.7291 63.5498 83.6165 64.1209 83.6171C64.692 83.6165 65.2576 83.7291 65.7853 83.9482C66.313 84.1674 66.7925 84.4889 67.1963 84.8943C67.6001 85.2997 67.9204 85.7811 68.1387 86.3108C68.357 86.8406 68.4691 87.4084 68.4686 87.9818C68.4691 88.5551 68.357 89.1229 68.1387 89.6527C67.9204 90.1824 67.6001 90.6638 67.1963 91.0692C66.7925 91.4746 66.313 91.7961 65.7853 92.0153C65.2576 92.2344 64.692 92.3474 64.1209 92.3469Z" fill="url(#paint1_linear_98_150)"/>
</g>
<defs>
<linearGradient id="paint0_linear_98_150" x1="959.233" y1="896.502" x2="5922.12" y2="5790.69" gradientUnits="userSpaceOnUse">
<stop stop-color="#387EB8"/>
<stop offset="1" stop-color="#366994"/>
</linearGradient>
<linearGradient id="paint1_linear_98_150" x1="1441.38" y1="1557.36" x2="6769.99" y2="6574.99" gradientUnits="userSpaceOnUse">
<stop stop-color="#FFE052"/>
<stop offset="1" stop-color="#FFC331"/>
</linearGradient>
<clipPath id="clip0_98_150">
<rect width="100" height="100" fill="white" transform="translate(0.5 0.370361)"/>
</clipPath>
</defs>
</svg>
