<svg width="51" height="46" viewBox="0 0 51 46" fill="none" xmlns="http://www.w3.org/2000/svg">
<g clip-path="url(#clip0_74_68)">
<path d="M40.7772 0.777779H10.2216C9.87438 0.777779 9.54452 0.95139 9.35355 1.24653L0.672997 14.0243C0.42126 14.4063 0.447302 14.9097 0.73376 15.2569L24.6921 44.8403C25.1088 45.3524 25.89 45.3524 26.3067 44.8403L50.265 15.2569C50.5515 14.901 50.5775 14.4063 50.3258 14.0243L41.6539 1.24653C41.4542 0.95139 41.1331 0.777779 40.7772 0.777779ZM39.1018 4.94445L44.5966 13.2778H38.6591L34.1713 4.94445H39.1018ZM21.5584 4.94445H29.4317L33.9195 13.2778H17.0792L21.5584 4.94445ZM11.897 4.94445H16.8275L12.3397 13.2778H6.40216L11.897 4.94445ZM8.16432 17.4444H12.6261L18.5549 31.3333L8.16432 17.4444ZM17.0966 17.4444H33.9022L25.4994 38.5642L17.0966 17.4444ZM32.4438 31.3333L38.364 17.4444H42.8258L32.4438 31.3333Z" fill="#FFB74D"/>
</g>
<defs>
<clipPath id="clip0_74_68">
<rect width="50" height="44.4444" fill="white" transform="translate(0.5 0.777779)"/>
</clipPath>
</defs>
</svg>
