<svg width="28" height="45" viewBox="0 0 28 45" fill="none" xmlns="http://www.w3.org/2000/svg">
<path d="M17.0554 32.2883H10.9772C9.74285 32.2883 8.72723 33.2883 8.74285 34.5227V40.6008C8.74285 41.8352 9.74285 42.8352 10.9772 42.8352H11.3647C11.6282 43.3049 12.0119 43.6958 12.4766 43.968C12.9412 44.2401 13.47 44.3835 14.0085 44.3835C14.547 44.3835 15.0757 44.2401 15.5404 43.968C16.005 43.6958 16.3888 43.3049 16.6522 42.8352H17.0554C18.2897 42.8352 19.2897 41.8352 19.2897 40.6008V34.5227C19.2897 33.2883 18.2897 32.2883 17.0554 32.2883Z" fill="#9B9B9B"/>
<path d="M17.8523 33.6321C18.2273 33.6321 18.5242 33.3508 18.5554 32.9915C18.6648 31.6477 19.2429 28.3821 22.3992 24.8821C23.9052 23.6962 25.1421 22.2041 26.0283 20.5045C26.9145 18.8048 27.4297 16.9364 27.5398 15.0227C27.5711 14.6477 27.5867 14.3977 27.5867 14.2415V14.0852C27.4929 6.61646 21.4461 0.616463 13.9929 0.616463C10.416 0.616271 6.98353 2.0275 4.44114 4.54356C1.89875 7.05962 0.451867 10.4772 0.414822 14.054C0.414822 14.054 0.399197 14.429 0.461697 15.054C0.711697 19.0227 2.6492 22.5383 5.60232 24.8665C8.75857 28.3821 9.38357 31.6477 9.49295 32.9915C9.5242 33.3508 9.82107 33.6321 10.1961 33.6321H17.8523Z" fill="#FCD53F"/>
<path d="M14.0085 14.2102C16.5398 14.2102 18.6023 16.2571 18.6335 18.7883V18.9133C18.6335 18.9602 18.6335 19.0227 18.6179 19.1165C18.5398 20.429 17.8991 21.6633 16.8679 22.4758L16.7585 22.554L16.6648 22.6477C14.946 24.554 14.5866 29.3977 14.5241 32.054H13.5085C13.4304 29.3977 13.0554 24.554 11.3366 22.6477L11.2429 22.554L11.1335 22.4758C10.6174 22.0677 10.1943 21.5541 9.89256 20.9694C9.59078 20.3847 9.41723 19.7423 9.38351 19.0852C9.38351 19.0227 9.36789 18.9758 9.36789 18.9446V18.804C9.41476 16.2727 11.4929 14.2102 14.0085 14.2102ZM14.0085 12.6477C12.7227 12.6482 11.4691 13.0492 10.4217 13.795C9.37434 14.5408 8.58533 15.5943 8.16433 16.8092C7.74333 18.0241 7.71125 19.34 8.07256 20.5739C8.43387 21.8079 9.17061 22.8986 10.1804 23.6946C12.0554 25.7883 11.9616 33.6321 11.9616 33.6321H16.0866C16.0866 33.6321 15.9616 25.7883 17.8523 23.7102C19.196 22.6477 20.0866 21.0383 20.196 19.2102C20.2116 19.0383 20.2116 18.929 20.2116 18.8508V18.7883C20.1948 17.1542 19.5338 15.5926 18.3724 14.4429C17.2109 13.2931 15.6428 12.648 14.0085 12.6477Z" fill="#FFB02E"/>
<path d="M19.4241 36.6368C19.5253 36.6191 19.622 36.5817 19.7087 36.5267C19.7954 36.4717 19.8704 36.4001 19.9295 36.3161C19.9885 36.2321 20.0304 36.1373 20.0529 36.0371C20.0753 35.9369 20.0777 35.8332 20.0601 35.7321C20.0424 35.6309 20.005 35.5342 19.95 35.4475C19.895 35.3608 19.8234 35.2858 19.7394 35.2268C19.6554 35.1677 19.5606 35.1258 19.4604 35.1034C19.3602 35.081 19.2565 35.0785 19.1554 35.0962L8.62413 36.9399C8.52297 36.9575 8.42628 36.9949 8.33958 37.05C8.25287 37.105 8.17785 37.1765 8.1188 37.2605C8.05975 37.3445 8.01782 37.4394 7.99541 37.5396C7.973 37.6398 7.97055 37.7434 7.98819 37.8446C8.00584 37.9457 8.04324 38.0424 8.09825 38.1291C8.15327 38.2159 8.22482 38.2909 8.30883 38.3499C8.39284 38.409 8.48766 38.4509 8.58787 38.4733C8.68808 38.4957 8.79172 38.4982 8.89288 38.4805L19.4241 36.6368ZM19.346 39.9962C19.5478 39.958 19.7264 39.842 19.8433 39.6732C19.9602 39.5044 20.0059 39.2964 19.9706 39.0941C19.9353 38.8918 19.8218 38.7116 19.6546 38.5924C19.4874 38.4732 19.28 38.4246 19.0773 38.4571L8.68663 40.2852C8.58214 40.299 8.48153 40.3338 8.39085 40.3876C8.30017 40.4413 8.22129 40.5128 8.15897 40.5978C8.09665 40.6828 8.05217 40.7795 8.02821 40.8821C8.00425 40.9848 8.00131 41.0912 8.01956 41.195C8.03781 41.2988 8.07688 41.3979 8.13441 41.4862C8.19194 41.5745 8.26674 41.6502 8.35431 41.7089C8.44189 41.7675 8.54043 41.8078 8.64399 41.8274C8.74756 41.847 8.85401 41.8454 8.95695 41.8227L19.346 39.9962Z" fill="#D3D3D3"/>
<path d="M11.0243 5.99146C9.28991 8.99146 10.1649 12.7415 12.9774 14.3508C15.7899 15.9602 19.4618 14.8508 21.1962 11.8508C22.9305 8.85084 22.0555 5.10084 19.243 3.49146C16.4305 1.88209 12.7587 2.99146 11.0243 5.99146Z" fill="#FFF478"/>
</svg>
