<svg width="50" height="50" viewBox="0 0 50 50" fill="none" xmlns="http://www.w3.org/2000/svg">
<path fill-rule="evenodd" clip-rule="evenodd" d="M16.6667 33.3333C16.862 33.5287 16.9717 33.7936 16.9717 34.0698C16.9717 34.346 16.862 34.6109 16.6667 34.8062L14.5834 36.8896C14.4873 36.9891 14.3724 37.0684 14.2453 37.123C14.1182 37.1776 13.9815 37.2063 13.8432 37.2075C13.7049 37.2087 13.5677 37.1824 13.4397 37.13C13.3117 37.0776 13.1954 37.0003 13.0976 36.9025C12.9998 36.8047 12.9224 36.6884 12.87 36.5604C12.8177 36.4323 12.7913 36.2952 12.7925 36.1569C12.7937 36.0186 12.8224 35.8819 12.877 35.7548C12.9316 35.6277 13.011 35.5128 13.1105 35.4167L15.1938 33.3333C15.3892 33.138 15.6541 33.0283 15.9303 33.0283C16.2065 33.0283 16.4714 33.138 16.6667 33.3333ZM19.7917 36.4583C19.987 36.6537 20.0967 36.9186 20.0967 37.1948C20.0967 37.471 19.987 37.7359 19.7917 37.9312L17.7084 40.0146C17.6123 40.1141 17.4974 40.1934 17.3703 40.248C17.2432 40.3026 17.1065 40.3313 16.9682 40.3325C16.8299 40.3337 16.6927 40.3074 16.5647 40.255C16.4367 40.2026 16.3204 40.1253 16.2226 40.0275C16.1248 39.9297 16.0474 39.8134 15.995 39.6854C15.9427 39.5573 15.9163 39.4202 15.9175 39.2819C15.9187 39.1436 15.9474 39.0069 16.002 38.8798C16.0566 38.7527 16.136 38.6378 16.2355 38.5417L18.3188 36.4583C18.5141 36.263 18.7791 36.1533 19.0553 36.1533C19.3315 36.1533 19.5964 36.263 19.7917 36.4583ZM13.5417 30.2083C13.737 30.4037 13.8467 30.6686 13.8467 30.9448C13.8467 31.221 13.737 31.4859 13.5417 31.6812L11.4584 33.7646C11.3615 33.8613 11.2466 33.938 11.1201 33.9903C10.9936 34.0426 10.8581 34.0694 10.7212 34.0693C10.5843 34.0692 10.4488 34.0422 10.3224 33.9897C10.196 33.9372 10.0811 33.8604 9.98443 33.7635C9.88772 33.6667 9.81103 33.5517 9.75874 33.4252C9.70645 33.2988 9.67959 33.1632 9.67969 33.0263C9.67978 32.8895 9.70684 32.754 9.75931 32.6275C9.81177 32.5011 9.88863 32.3863 9.98548 32.2896L12.0688 30.2062C12.2642 30.011 12.5291 29.9013 12.8053 29.9013C13.0815 29.9013 13.3464 30.011 13.5417 30.2062M26.2542 12.5333C20.6159 15.2935 16.2813 20.1501 14.1771 26.0646L23.9355 35.825C29.8502 33.7201 34.7068 29.3848 37.4667 23.7458L26.2542 12.5333ZM28.4313 23.6521C28.4313 24.0625 28.3505 24.4688 28.1934 24.848C28.0364 25.2271 27.8062 25.5716 27.516 25.8618C27.2258 26.152 26.8813 26.3822 26.5022 26.5392C26.1231 26.6962 25.7167 26.7771 25.3063 26.7771C24.8959 26.7771 24.4896 26.6962 24.1104 26.5392C23.7313 26.3822 23.3868 26.152 23.0966 25.8618C22.8064 25.5716 22.5762 25.2271 22.4192 24.848C22.2621 24.4688 22.1813 24.0625 22.1813 23.6521C22.1813 22.8233 22.5105 22.0284 23.0966 21.4424C23.6827 20.8563 24.4775 20.5271 25.3063 20.5271C26.1351 20.5271 26.93 20.8563 27.516 21.4424C28.1021 22.0284 28.4313 22.8233 28.4313 23.6521Z" fill="#DD2E44"/>
<path d="M38.3541 21.6875C39.3732 18.9863 39.8934 16.1225 39.8895 13.2354C39.8895 12.2375 39.827 11.2562 39.7104 10.2896C38.733 10.17 37.7492 10.1101 36.7645 10.1104C33.7895 10.1104 30.9416 10.6521 28.3125 11.6437L38.3541 21.6875ZM25.5541 37.4417L27.6937 39.5812C27.8393 39.7272 28.0249 39.8266 28.227 39.8671C28.4291 39.9075 28.6386 39.887 28.8291 39.8083C29.0196 39.7295 29.1825 39.5961 29.297 39.4247C29.4116 39.2534 29.4728 39.0519 29.4729 38.8458V35.4833C28.2242 36.2454 26.9133 36.9006 25.5541 37.4417ZM12.5583 24.4458C13.102 23.0792 13.7583 21.7687 14.5166 20.5271H11.1541C10.9478 20.5267 10.7461 20.5876 10.5744 20.702C10.4028 20.8165 10.269 20.9793 10.19 21.1699C10.111 21.3604 10.0904 21.5702 10.1307 21.7725C10.1711 21.9748 10.2706 22.1606 10.4166 22.3062L12.5583 24.4458Z" fill="#DD2E44"/>
</svg>
